# xmcd
#
# Track frame offsets: 
#        150
#        22460
#        45983
#        65165
#        83080
#        101427
#        127267
#        145800
#        174075
#        195162
#        213297
#
# Disc length: 3009 seconds
#
# Revision: 4
# Processed by: cddbd v1.5.1PL2 Copyright (c) Steve Scherf et al.
# Submitted via: ExactAudioCopy v0.90b4
#
DISCID=950bbf0b
DTITLE=Sixun - Nouvelle Vague
DYEAR=1998
DGENRE=Jazz
TTITLE0=Un Week End Chez René
TTITLE1=Trianon
TTITLE2=Singapore
TTITLE3=Y Bo Cé
TTITLE4=Rapisrap
TTITLE5=La Plage
TTITLE6=No Moustic No Frog
TTITLE7=Nouvelle Vague
TTITLE8=Alibabacid
TTITLE9=Felafro
TTITLE10=Jungle Java
EXTD=YEAR: 1998
EXTT0=
EXTT1=
EXTT2=
EXTT3=
EXTT4=
EXTT5=
EXTT6=
EXTT7=
EXTT8=
EXTT9=
EXTT10=
PLAYORDER=
